<mxfile host="app.diagrams.net" modified="2024-01-16T16:20:06.278Z" agent="Mozilla/5.0 (X11; Linux x86_64) AppleWebKit/537.36 (KHTML, like Gecko) Chrome/120.0.0.0 Safari/537.36" etag="hlXsBtQZvWaJ5ngj--xe" version="22.1.18" type="device">
  <diagram name="Página-1" id="eW4vBerHJCCK3IBesupC">
    <mxGraphModel dx="1624" dy="625" grid="1" gridSize="10" guides="1" tooltips="1" connect="1" arrows="1" fold="1" page="1" pageScale="1" pageWidth="827" pageHeight="1169" math="0" shadow="0">
      <root>
        <mxCell id="0" />
        <mxCell id="1" parent="0" />
        <mxCell id="L10rVUzcokbx8senKPkJ-9" style="rounded=0;orthogonalLoop=1;jettySize=auto;html=1;exitX=0.5;exitY=0;exitDx=0;exitDy=0;entryX=0.5;entryY=1;entryDx=0;entryDy=0;endArrow=none;endFill=0;" parent="1" source="n7jX9IWa5AHNB72dme2B-1" target="L10rVUzcokbx8senKPkJ-8" edge="1">
          <mxGeometry relative="1" as="geometry" />
        </mxCell>
        <mxCell id="L10rVUzcokbx8senKPkJ-10" style="rounded=0;orthogonalLoop=1;jettySize=auto;html=1;exitX=0.25;exitY=0;exitDx=0;exitDy=0;entryX=0.5;entryY=1;entryDx=0;entryDy=0;endArrow=none;endFill=0;" parent="1" source="n7jX9IWa5AHNB72dme2B-1" target="L10rVUzcokbx8senKPkJ-7" edge="1">
          <mxGeometry relative="1" as="geometry" />
        </mxCell>
        <mxCell id="L10rVUzcokbx8senKPkJ-11" style="rounded=0;orthogonalLoop=1;jettySize=auto;html=1;exitX=0;exitY=0.25;exitDx=0;exitDy=0;entryX=1;entryY=0.5;entryDx=0;entryDy=0;endArrow=none;endFill=0;" parent="1" source="n7jX9IWa5AHNB72dme2B-1" target="L10rVUzcokbx8senKPkJ-6" edge="1">
          <mxGeometry relative="1" as="geometry" />
        </mxCell>
        <mxCell id="L10rVUzcokbx8senKPkJ-12" style="rounded=0;orthogonalLoop=1;jettySize=auto;html=1;exitX=0;exitY=0.75;exitDx=0;exitDy=0;entryX=1;entryY=0.5;entryDx=0;entryDy=0;endArrow=none;endFill=0;" parent="1" source="n7jX9IWa5AHNB72dme2B-1" target="L10rVUzcokbx8senKPkJ-4" edge="1">
          <mxGeometry relative="1" as="geometry" />
        </mxCell>
        <mxCell id="L10rVUzcokbx8senKPkJ-13" style="rounded=0;orthogonalLoop=1;jettySize=auto;html=1;exitX=0.25;exitY=1;exitDx=0;exitDy=0;entryX=0.5;entryY=0;entryDx=0;entryDy=0;endArrow=none;endFill=0;" parent="1" source="n7jX9IWa5AHNB72dme2B-1" target="L10rVUzcokbx8senKPkJ-2" edge="1">
          <mxGeometry relative="1" as="geometry" />
        </mxCell>
        <mxCell id="L10rVUzcokbx8senKPkJ-14" style="rounded=0;orthogonalLoop=1;jettySize=auto;html=1;exitX=0.75;exitY=1;exitDx=0;exitDy=0;entryX=0.5;entryY=0;entryDx=0;entryDy=0;endArrow=none;endFill=0;" parent="1" source="n7jX9IWa5AHNB72dme2B-1" target="L10rVUzcokbx8senKPkJ-1" edge="1">
          <mxGeometry relative="1" as="geometry" />
        </mxCell>
        <mxCell id="L10rVUzcokbx8senKPkJ-16" style="rounded=0;orthogonalLoop=1;jettySize=auto;html=1;exitX=1;exitY=0.75;exitDx=0;exitDy=0;entryX=0;entryY=0.5;entryDx=0;entryDy=0;endArrow=none;endFill=0;" parent="1" source="n7jX9IWa5AHNB72dme2B-1" target="L10rVUzcokbx8senKPkJ-3" edge="1">
          <mxGeometry relative="1" as="geometry" />
        </mxCell>
        <mxCell id="L10rVUzcokbx8senKPkJ-17" style="rounded=0;orthogonalLoop=1;jettySize=auto;html=1;exitX=1;exitY=0.25;exitDx=0;exitDy=0;entryX=0;entryY=0.5;entryDx=0;entryDy=0;endArrow=none;endFill=0;" parent="1" source="n7jX9IWa5AHNB72dme2B-1" target="L10rVUzcokbx8senKPkJ-5" edge="1">
          <mxGeometry relative="1" as="geometry" />
        </mxCell>
        <mxCell id="L10rVUzcokbx8senKPkJ-21" style="rounded=0;orthogonalLoop=1;jettySize=auto;html=1;exitX=0.5;exitY=1;exitDx=0;exitDy=0;entryX=0.5;entryY=0;entryDx=0;entryDy=0;endArrow=none;endFill=0;" parent="1" source="n7jX9IWa5AHNB72dme2B-1" target="L10rVUzcokbx8senKPkJ-20" edge="1">
          <mxGeometry relative="1" as="geometry" />
        </mxCell>
        <mxCell id="jXXUjzo4BKxj_JuMPKdT-4" style="rounded=0;orthogonalLoop=1;jettySize=auto;html=1;exitX=0.5;exitY=0;exitDx=0;exitDy=0;entryX=0.5;entryY=1;entryDx=0;entryDy=0;endArrow=none;endFill=0;" parent="1" source="n7jX9IWa5AHNB72dme2B-1" target="jXXUjzo4BKxj_JuMPKdT-3" edge="1">
          <mxGeometry relative="1" as="geometry" />
        </mxCell>
        <mxCell id="jXXUjzo4BKxj_JuMPKdT-7" style="edgeStyle=orthogonalEdgeStyle;rounded=0;orthogonalLoop=1;jettySize=auto;html=1;exitX=1;exitY=0.25;exitDx=0;exitDy=0;entryX=0;entryY=0.5;entryDx=0;entryDy=0;endArrow=none;endFill=0;" parent="1" source="n7jX9IWa5AHNB72dme2B-1" target="jXXUjzo4BKxj_JuMPKdT-1" edge="1">
          <mxGeometry relative="1" as="geometry" />
        </mxCell>
        <mxCell id="jXXUjzo4BKxj_JuMPKdT-14" style="rounded=0;orthogonalLoop=1;jettySize=auto;html=1;exitX=0.5;exitY=1;exitDx=0;exitDy=0;entryX=1;entryY=0;entryDx=0;entryDy=0;endArrow=none;endFill=0;" parent="1" source="n7jX9IWa5AHNB72dme2B-1" target="jXXUjzo4BKxj_JuMPKdT-11" edge="1">
          <mxGeometry relative="1" as="geometry" />
        </mxCell>
        <mxCell id="jXXUjzo4BKxj_JuMPKdT-15" style="rounded=0;orthogonalLoop=1;jettySize=auto;html=1;exitX=0.5;exitY=1;exitDx=0;exitDy=0;entryX=0;entryY=0;entryDx=0;entryDy=0;endArrow=none;endFill=0;" parent="1" source="n7jX9IWa5AHNB72dme2B-1" target="jXXUjzo4BKxj_JuMPKdT-12" edge="1">
          <mxGeometry relative="1" as="geometry" />
        </mxCell>
        <mxCell id="JkKdHwhiY4ZIvZWWVgxL-2" style="rounded=0;orthogonalLoop=1;jettySize=auto;html=1;exitX=1;exitY=0;exitDx=0;exitDy=0;entryX=0;entryY=0.5;entryDx=0;entryDy=0;endArrow=none;endFill=0;" edge="1" parent="1" source="n7jX9IWa5AHNB72dme2B-1" target="JkKdHwhiY4ZIvZWWVgxL-1">
          <mxGeometry relative="1" as="geometry" />
        </mxCell>
        <mxCell id="n7jX9IWa5AHNB72dme2B-1" value="Usuiario" style="whiteSpace=wrap;html=1;align=center;" parent="1" vertex="1">
          <mxGeometry x="150" y="240" width="100" height="40" as="geometry" />
        </mxCell>
        <mxCell id="voDOwXzz-UpNFZeyh3o8-6" style="rounded=0;orthogonalLoop=1;jettySize=auto;html=1;exitX=0.5;exitY=1;exitDx=0;exitDy=0;entryX=0.5;entryY=0;entryDx=0;entryDy=0;endArrow=none;endFill=0;" parent="1" source="voDOwXzz-UpNFZeyh3o8-1" target="voDOwXzz-UpNFZeyh3o8-5" edge="1">
          <mxGeometry relative="1" as="geometry" />
        </mxCell>
        <mxCell id="voDOwXzz-UpNFZeyh3o8-8" style="rounded=0;orthogonalLoop=1;jettySize=auto;html=1;entryX=0.5;entryY=0;entryDx=0;entryDy=0;endArrow=none;endFill=0;exitX=0.5;exitY=1;exitDx=0;exitDy=0;" parent="1" source="voDOwXzz-UpNFZeyh3o8-1" target="voDOwXzz-UpNFZeyh3o8-2" edge="1">
          <mxGeometry relative="1" as="geometry">
            <mxPoint x="999" y="300" as="targetPoint" />
            <mxPoint x="945" y="260" as="sourcePoint" />
          </mxGeometry>
        </mxCell>
        <mxCell id="jXXUjzo4BKxj_JuMPKdT-16" value="" style="rounded=0;orthogonalLoop=1;jettySize=auto;html=1;endArrow=none;endFill=0;" parent="1" source="voDOwXzz-UpNFZeyh3o8-1" target="voDOwXzz-UpNFZeyh3o8-4" edge="1">
          <mxGeometry relative="1" as="geometry" />
        </mxCell>
        <mxCell id="jXXUjzo4BKxj_JuMPKdT-22" style="rounded=0;orthogonalLoop=1;jettySize=auto;html=1;exitX=1;exitY=0.5;exitDx=0;exitDy=0;entryX=0;entryY=0.5;entryDx=0;entryDy=0;endArrow=none;endFill=0;" parent="1" source="voDOwXzz-UpNFZeyh3o8-1" target="jXXUjzo4BKxj_JuMPKdT-21" edge="1">
          <mxGeometry relative="1" as="geometry" />
        </mxCell>
        <mxCell id="voDOwXzz-UpNFZeyh3o8-1" value="categoríasUsuario" style="whiteSpace=wrap;html=1;align=center;" parent="1" vertex="1">
          <mxGeometry x="845" y="230" width="100" height="40" as="geometry" />
        </mxCell>
        <mxCell id="voDOwXzz-UpNFZeyh3o8-2" value="codigoCategoria" style="ellipse;whiteSpace=wrap;html=1;align=center;" parent="1" vertex="1">
          <mxGeometry x="965" y="325" width="100" height="45" as="geometry" />
        </mxCell>
        <mxCell id="voDOwXzz-UpNFZeyh3o8-4" value="codigoUsuario" style="ellipse;whiteSpace=wrap;html=1;align=center;" parent="1" vertex="1">
          <mxGeometry x="845" y="345" width="100" height="40" as="geometry" />
        </mxCell>
        <mxCell id="voDOwXzz-UpNFZeyh3o8-5" value="codigo" style="ellipse;whiteSpace=wrap;html=1;align=center;fontStyle=4;" parent="1" vertex="1">
          <mxGeometry x="727" y="330" width="100" height="40" as="geometry" />
        </mxCell>
        <mxCell id="L10rVUzcokbx8senKPkJ-37" style="rounded=0;orthogonalLoop=1;jettySize=auto;html=1;exitX=0.25;exitY=1;exitDx=0;exitDy=0;entryX=0.5;entryY=0;entryDx=0;entryDy=0;endArrow=none;endFill=0;" parent="1" source="voDOwXzz-UpNFZeyh3o8-9" target="voDOwXzz-UpNFZeyh3o8-11" edge="1">
          <mxGeometry relative="1" as="geometry" />
        </mxCell>
        <mxCell id="L10rVUzcokbx8senKPkJ-38" style="rounded=0;orthogonalLoop=1;jettySize=auto;html=1;exitX=0.5;exitY=1;exitDx=0;exitDy=0;entryX=0.5;entryY=0;entryDx=0;entryDy=0;endArrow=none;endFill=0;" parent="1" source="voDOwXzz-UpNFZeyh3o8-9" target="voDOwXzz-UpNFZeyh3o8-12" edge="1">
          <mxGeometry relative="1" as="geometry" />
        </mxCell>
        <mxCell id="L10rVUzcokbx8senKPkJ-39" style="rounded=0;orthogonalLoop=1;jettySize=auto;html=1;exitX=0.75;exitY=1;exitDx=0;exitDy=0;entryX=0.5;entryY=0;entryDx=0;entryDy=0;endArrow=none;endFill=0;" parent="1" source="voDOwXzz-UpNFZeyh3o8-9" target="voDOwXzz-UpNFZeyh3o8-13" edge="1">
          <mxGeometry relative="1" as="geometry" />
        </mxCell>
        <mxCell id="L10rVUzcokbx8senKPkJ-40" style="rounded=0;orthogonalLoop=1;jettySize=auto;html=1;exitX=1;exitY=0.75;exitDx=0;exitDy=0;entryX=0;entryY=0.5;entryDx=0;entryDy=0;endArrow=none;endFill=0;" parent="1" source="voDOwXzz-UpNFZeyh3o8-9" target="voDOwXzz-UpNFZeyh3o8-14" edge="1">
          <mxGeometry relative="1" as="geometry">
            <mxPoint x="1419.6446609406726" y="910.8578643762692" as="targetPoint" />
          </mxGeometry>
        </mxCell>
        <mxCell id="L10rVUzcokbx8senKPkJ-41" style="rounded=0;orthogonalLoop=1;jettySize=auto;html=1;exitX=1;exitY=0.5;exitDx=0;exitDy=0;endArrow=none;endFill=0;entryX=0;entryY=0.5;entryDx=0;entryDy=0;" parent="1" source="voDOwXzz-UpNFZeyh3o8-9" target="voDOwXzz-UpNFZeyh3o8-15" edge="1">
          <mxGeometry relative="1" as="geometry">
            <mxPoint x="1425" y="885" as="targetPoint" />
          </mxGeometry>
        </mxCell>
        <mxCell id="L10rVUzcokbx8senKPkJ-43" style="rounded=0;orthogonalLoop=1;jettySize=auto;html=1;exitX=0;exitY=0.5;exitDx=0;exitDy=0;entryX=1;entryY=0.5;entryDx=0;entryDy=0;endArrow=none;endFill=0;" parent="1" source="voDOwXzz-UpNFZeyh3o8-9" target="voDOwXzz-UpNFZeyh3o8-16" edge="1">
          <mxGeometry relative="1" as="geometry" />
        </mxCell>
        <mxCell id="L10rVUzcokbx8senKPkJ-44" style="rounded=0;orthogonalLoop=1;jettySize=auto;html=1;exitX=0.25;exitY=0;exitDx=0;exitDy=0;entryX=1;entryY=0.5;entryDx=0;entryDy=0;endArrow=none;endFill=0;" parent="1" source="voDOwXzz-UpNFZeyh3o8-9" target="voDOwXzz-UpNFZeyh3o8-17" edge="1">
          <mxGeometry relative="1" as="geometry" />
        </mxCell>
        <mxCell id="L10rVUzcokbx8senKPkJ-45" style="rounded=0;orthogonalLoop=1;jettySize=auto;html=1;exitX=0.5;exitY=0;exitDx=0;exitDy=0;entryX=1;entryY=1;entryDx=0;entryDy=0;endArrow=none;endFill=0;" parent="1" source="voDOwXzz-UpNFZeyh3o8-9" target="voDOwXzz-UpNFZeyh3o8-18" edge="1">
          <mxGeometry relative="1" as="geometry" />
        </mxCell>
        <mxCell id="L10rVUzcokbx8senKPkJ-47" style="rounded=0;orthogonalLoop=1;jettySize=auto;html=1;exitX=0.75;exitY=0;exitDx=0;exitDy=0;entryX=0.5;entryY=1;entryDx=0;entryDy=0;endArrow=none;endFill=0;" parent="1" source="voDOwXzz-UpNFZeyh3o8-9" target="voDOwXzz-UpNFZeyh3o8-19" edge="1">
          <mxGeometry relative="1" as="geometry" />
        </mxCell>
        <mxCell id="L10rVUzcokbx8senKPkJ-48" style="rounded=0;orthogonalLoop=1;jettySize=auto;html=1;exitX=1;exitY=0.25;exitDx=0;exitDy=0;entryX=0;entryY=0.5;entryDx=0;entryDy=0;endArrow=none;endFill=0;" parent="1" source="voDOwXzz-UpNFZeyh3o8-9" target="voDOwXzz-UpNFZeyh3o8-20" edge="1">
          <mxGeometry relative="1" as="geometry">
            <mxPoint x="1415" y="835" as="targetPoint" />
          </mxGeometry>
        </mxCell>
        <mxCell id="L10rVUzcokbx8senKPkJ-50" style="rounded=0;orthogonalLoop=1;jettySize=auto;html=1;exitX=0.75;exitY=0;exitDx=0;exitDy=0;endArrow=none;endFill=0;entryX=0;entryY=0.5;entryDx=0;entryDy=0;" parent="1" source="voDOwXzz-UpNFZeyh3o8-9" target="voDOwXzz-UpNFZeyh3o8-21" edge="1">
          <mxGeometry relative="1" as="geometry">
            <mxPoint x="1490" y="770" as="targetPoint" />
          </mxGeometry>
        </mxCell>
        <mxCell id="L10rVUzcokbx8senKPkJ-51" style="rounded=0;orthogonalLoop=1;jettySize=auto;html=1;exitX=0.5;exitY=0;exitDx=0;exitDy=0;entryX=1;entryY=0.5;entryDx=0;entryDy=0;endArrow=none;endFill=0;" parent="1" source="voDOwXzz-UpNFZeyh3o8-9" target="voDOwXzz-UpNFZeyh3o8-22" edge="1">
          <mxGeometry relative="1" as="geometry" />
        </mxCell>
        <mxCell id="L10rVUzcokbx8senKPkJ-52" style="rounded=0;orthogonalLoop=1;jettySize=auto;html=1;exitX=0.5;exitY=0;exitDx=0;exitDy=0;entryX=0.5;entryY=1;entryDx=0;entryDy=0;endArrow=none;endFill=0;" parent="1" source="voDOwXzz-UpNFZeyh3o8-9" target="voDOwXzz-UpNFZeyh3o8-23" edge="1">
          <mxGeometry relative="1" as="geometry" />
        </mxCell>
        <mxCell id="jXXUjzo4BKxj_JuMPKdT-73" style="edgeStyle=orthogonalEdgeStyle;rounded=0;orthogonalLoop=1;jettySize=auto;html=1;exitX=0.5;exitY=1;exitDx=0;exitDy=0;entryX=0.5;entryY=0;entryDx=0;entryDy=0;endArrow=none;endFill=0;" parent="1" source="voDOwXzz-UpNFZeyh3o8-9" target="jXXUjzo4BKxj_JuMPKdT-72" edge="1">
          <mxGeometry relative="1" as="geometry" />
        </mxCell>
        <mxCell id="voDOwXzz-UpNFZeyh3o8-9" value="Ofertas" style="whiteSpace=wrap;html=1;align=center;" parent="1" vertex="1">
          <mxGeometry x="1222" y="825" width="100" height="40" as="geometry" />
        </mxCell>
        <mxCell id="voDOwXzz-UpNFZeyh3o8-11" value="codigo" style="ellipse;whiteSpace=wrap;html=1;align=center;fontStyle=4;" parent="1" vertex="1">
          <mxGeometry x="1115" y="945" width="100" height="40" as="geometry" />
        </mxCell>
        <mxCell id="voDOwXzz-UpNFZeyh3o8-12" value="nombre" style="ellipse;whiteSpace=wrap;html=1;align=center;" parent="1" vertex="1">
          <mxGeometry x="1295" y="965" width="100" height="40" as="geometry" />
        </mxCell>
        <mxCell id="voDOwXzz-UpNFZeyh3o8-13" value="descripción" style="ellipse;whiteSpace=wrap;html=1;align=center;" parent="1" vertex="1">
          <mxGeometry x="1410" y="975" width="100" height="40" as="geometry" />
        </mxCell>
        <mxCell id="voDOwXzz-UpNFZeyh3o8-14" value="empresa" style="ellipse;whiteSpace=wrap;html=1;align=center;" parent="1" vertex="1">
          <mxGeometry x="1440" y="915" width="100" height="40" as="geometry" />
        </mxCell>
        <mxCell id="voDOwXzz-UpNFZeyh3o8-15" value="categoría" style="ellipse;whiteSpace=wrap;html=1;align=center;" parent="1" vertex="1">
          <mxGeometry x="1440" y="860" width="100" height="40" as="geometry" />
        </mxCell>
        <mxCell id="voDOwXzz-UpNFZeyh3o8-16" value="estado" style="ellipse;whiteSpace=wrap;html=1;align=center;" parent="1" vertex="1">
          <mxGeometry x="1035" y="895" width="100" height="40" as="geometry" />
        </mxCell>
        <mxCell id="voDOwXzz-UpNFZeyh3o8-17" value="fecha publicación" style="ellipse;whiteSpace=wrap;html=1;align=center;" parent="1" vertex="1">
          <mxGeometry x="1025" y="785" width="100" height="40" as="geometry" />
        </mxCell>
        <mxCell id="voDOwXzz-UpNFZeyh3o8-18" value="fecha limite" style="ellipse;whiteSpace=wrap;html=1;align=center;" parent="1" vertex="1">
          <mxGeometry x="1145" y="715" width="100" height="40" as="geometry" />
        </mxCell>
        <mxCell id="voDOwXzz-UpNFZeyh3o8-19" value="salario" style="ellipse;whiteSpace=wrap;html=1;align=center;" parent="1" vertex="1">
          <mxGeometry x="1355" y="700" width="100" height="40" as="geometry" />
        </mxCell>
        <mxCell id="voDOwXzz-UpNFZeyh3o8-20" value="modalidad" style="ellipse;whiteSpace=wrap;html=1;align=center;" parent="1" vertex="1">
          <mxGeometry x="1440" y="795" width="100" height="40" as="geometry" />
        </mxCell>
        <mxCell id="voDOwXzz-UpNFZeyh3o8-21" value="ubicación" style="ellipse;whiteSpace=wrap;html=1;align=center;" parent="1" vertex="1">
          <mxGeometry x="1420" y="745" width="100" height="40" as="geometry" />
        </mxCell>
        <mxCell id="voDOwXzz-UpNFZeyh3o8-22" value="detalles" style="ellipse;whiteSpace=wrap;html=1;align=center;" parent="1" vertex="1">
          <mxGeometry x="1045" y="740" width="100" height="40" as="geometry" />
        </mxCell>
        <mxCell id="voDOwXzz-UpNFZeyh3o8-23" value="usuarioElegido" style="ellipse;whiteSpace=wrap;html=1;align=center;" parent="1" vertex="1">
          <mxGeometry x="1245" y="700" width="100" height="40" as="geometry" />
        </mxCell>
        <mxCell id="L10rVUzcokbx8senKPkJ-1" value="codigo" style="ellipse;whiteSpace=wrap;html=1;align=center;fontStyle=4;" parent="1" vertex="1">
          <mxGeometry x="260" y="370" width="100" height="40" as="geometry" />
        </mxCell>
        <mxCell id="L10rVUzcokbx8senKPkJ-2" value="nombre" style="ellipse;whiteSpace=wrap;html=1;align=center;" parent="1" vertex="1">
          <mxGeometry x="20" y="320" width="100" height="40" as="geometry" />
        </mxCell>
        <mxCell id="L10rVUzcokbx8senKPkJ-3" value="dirección" style="ellipse;whiteSpace=wrap;html=1;align=center;" parent="1" vertex="1">
          <mxGeometry x="340" y="320" width="100" height="40" as="geometry" />
        </mxCell>
        <mxCell id="L10rVUzcokbx8senKPkJ-4" value="username" style="ellipse;whiteSpace=wrap;html=1;align=center;" parent="1" vertex="1">
          <mxGeometry x="20" y="265" width="100" height="40" as="geometry" />
        </mxCell>
        <mxCell id="L10rVUzcokbx8senKPkJ-5" value="password" style="ellipse;whiteSpace=wrap;html=1;align=center;" parent="1" vertex="1">
          <mxGeometry x="350" y="265" width="100" height="40" as="geometry" />
        </mxCell>
        <mxCell id="L10rVUzcokbx8senKPkJ-6" value="email" style="ellipse;whiteSpace=wrap;html=1;align=center;" parent="1" vertex="1">
          <mxGeometry x="10" y="205" width="100" height="40" as="geometry" />
        </mxCell>
        <mxCell id="L10rVUzcokbx8senKPkJ-7" value="CUI" style="ellipse;whiteSpace=wrap;html=1;align=center;" parent="1" vertex="1">
          <mxGeometry x="50" y="150" width="100" height="40" as="geometry" />
        </mxCell>
        <mxCell id="L10rVUzcokbx8senKPkJ-8" value="fechaNacimiento" style="ellipse;whiteSpace=wrap;html=1;align=center;" parent="1" vertex="1">
          <mxGeometry x="150" y="130" width="100" height="40" as="geometry" />
        </mxCell>
        <mxCell id="L10rVUzcokbx8senKPkJ-20" value="rol" style="ellipse;whiteSpace=wrap;html=1;align=center;" parent="1" vertex="1">
          <mxGeometry x="70" y="430" width="100" height="40" as="geometry" />
        </mxCell>
        <mxCell id="L10rVUzcokbx8senKPkJ-26" style="rounded=0;orthogonalLoop=1;jettySize=auto;html=1;exitX=0.5;exitY=0;exitDx=0;exitDy=0;entryX=0.5;entryY=1;entryDx=0;entryDy=0;endArrow=none;endFill=0;" parent="1" source="L10rVUzcokbx8senKPkJ-22" target="L10rVUzcokbx8senKPkJ-25" edge="1">
          <mxGeometry relative="1" as="geometry" />
        </mxCell>
        <mxCell id="L10rVUzcokbx8senKPkJ-27" style="rounded=0;orthogonalLoop=1;jettySize=auto;html=1;exitX=0.25;exitY=1;exitDx=0;exitDy=0;entryX=0.5;entryY=0;entryDx=0;entryDy=0;endArrow=none;endFill=0;" parent="1" source="L10rVUzcokbx8senKPkJ-22" target="L10rVUzcokbx8senKPkJ-23" edge="1">
          <mxGeometry relative="1" as="geometry" />
        </mxCell>
        <mxCell id="L10rVUzcokbx8senKPkJ-28" style="rounded=0;orthogonalLoop=1;jettySize=auto;html=1;exitX=0.75;exitY=1;exitDx=0;exitDy=0;entryX=0.5;entryY=0;entryDx=0;entryDy=0;endArrow=none;endFill=0;" parent="1" source="L10rVUzcokbx8senKPkJ-22" target="L10rVUzcokbx8senKPkJ-24" edge="1">
          <mxGeometry relative="1" as="geometry" />
        </mxCell>
        <mxCell id="L10rVUzcokbx8senKPkJ-79" style="rounded=0;orthogonalLoop=1;jettySize=auto;html=1;exitX=1;exitY=0.5;exitDx=0;exitDy=0;entryX=0;entryY=0.5;entryDx=0;entryDy=0;endArrow=none;endFill=0;" parent="1" source="L10rVUzcokbx8senKPkJ-22" target="L10rVUzcokbx8senKPkJ-77" edge="1">
          <mxGeometry relative="1" as="geometry" />
        </mxCell>
        <mxCell id="L10rVUzcokbx8senKPkJ-86" style="rounded=0;orthogonalLoop=1;jettySize=auto;html=1;exitX=1;exitY=0.5;exitDx=0;exitDy=0;endArrow=none;endFill=0;" parent="1" source="L10rVUzcokbx8senKPkJ-22" target="L10rVUzcokbx8senKPkJ-85" edge="1">
          <mxGeometry relative="1" as="geometry" />
        </mxCell>
        <mxCell id="L10rVUzcokbx8senKPkJ-22" value="tarjeta" style="whiteSpace=wrap;html=1;align=center;" parent="1" vertex="1">
          <mxGeometry x="695" y="500" width="100" height="40" as="geometry" />
        </mxCell>
        <mxCell id="L10rVUzcokbx8senKPkJ-23" value="numero" style="ellipse;whiteSpace=wrap;html=1;align=center;" parent="1" vertex="1">
          <mxGeometry x="615" y="575" width="100" height="40" as="geometry" />
        </mxCell>
        <mxCell id="L10rVUzcokbx8senKPkJ-24" value="codigoSeguridad" style="ellipse;whiteSpace=wrap;html=1;align=center;" parent="1" vertex="1">
          <mxGeometry x="745" y="580" width="100" height="40" as="geometry" />
        </mxCell>
        <mxCell id="L10rVUzcokbx8senKPkJ-25" value="Titular" style="ellipse;whiteSpace=wrap;html=1;align=center;" parent="1" vertex="1">
          <mxGeometry x="695" y="440" width="100" height="40" as="geometry" />
        </mxCell>
        <mxCell id="L10rVUzcokbx8senKPkJ-32" style="rounded=0;orthogonalLoop=1;jettySize=auto;html=1;exitX=0;exitY=0.5;exitDx=0;exitDy=0;entryX=1;entryY=0.5;entryDx=0;entryDy=0;endArrow=none;endFill=0;" parent="1" source="L10rVUzcokbx8senKPkJ-29" target="L10rVUzcokbx8senKPkJ-30" edge="1">
          <mxGeometry relative="1" as="geometry" />
        </mxCell>
        <mxCell id="L10rVUzcokbx8senKPkJ-88" style="rounded=0;orthogonalLoop=1;jettySize=auto;html=1;exitX=0.5;exitY=1;exitDx=0;exitDy=0;entryX=0;entryY=0.5;entryDx=0;entryDy=0;endArrow=none;endFill=0;" parent="1" source="L10rVUzcokbx8senKPkJ-29" target="L10rVUzcokbx8senKPkJ-87" edge="1">
          <mxGeometry relative="1" as="geometry" />
        </mxCell>
        <mxCell id="L10rVUzcokbx8senKPkJ-90" style="rounded=0;orthogonalLoop=1;jettySize=auto;html=1;exitX=1;exitY=0.5;exitDx=0;exitDy=0;entryX=0;entryY=0.5;entryDx=0;entryDy=0;endArrow=none;endFill=0;" parent="1" source="L10rVUzcokbx8senKPkJ-29" target="L10rVUzcokbx8senKPkJ-89" edge="1">
          <mxGeometry relative="1" as="geometry" />
        </mxCell>
        <mxCell id="L10rVUzcokbx8senKPkJ-29" value="telefonos" style="whiteSpace=wrap;html=1;align=center;" parent="1" vertex="1">
          <mxGeometry x="599" y="30" width="100" height="40" as="geometry" />
        </mxCell>
        <mxCell id="L10rVUzcokbx8senKPkJ-30" value="numero" style="ellipse;whiteSpace=wrap;html=1;align=center;" parent="1" vertex="1">
          <mxGeometry x="450" y="30" width="100" height="40" as="geometry" />
        </mxCell>
        <mxCell id="L10rVUzcokbx8senKPkJ-66" style="rounded=0;orthogonalLoop=1;jettySize=auto;html=1;exitX=0.25;exitY=0;exitDx=0;exitDy=0;entryX=1;entryY=0.5;entryDx=0;entryDy=0;endArrow=none;endFill=0;" parent="1" source="L10rVUzcokbx8senKPkJ-69" target="L10rVUzcokbx8senKPkJ-70" edge="1">
          <mxGeometry relative="1" as="geometry" />
        </mxCell>
        <mxCell id="L10rVUzcokbx8senKPkJ-67" style="rounded=0;orthogonalLoop=1;jettySize=auto;html=1;exitX=0.5;exitY=0;exitDx=0;exitDy=0;entryX=0.5;entryY=1;entryDx=0;entryDy=0;endArrow=none;endFill=0;" parent="1" source="L10rVUzcokbx8senKPkJ-69" target="L10rVUzcokbx8senKPkJ-71" edge="1">
          <mxGeometry relative="1" as="geometry" />
        </mxCell>
        <mxCell id="L10rVUzcokbx8senKPkJ-68" style="rounded=0;orthogonalLoop=1;jettySize=auto;html=1;exitX=0.5;exitY=1;exitDx=0;exitDy=0;entryX=0.5;entryY=0;entryDx=0;entryDy=0;endArrow=none;endFill=0;" parent="1" source="L10rVUzcokbx8senKPkJ-69" target="L10rVUzcokbx8senKPkJ-72" edge="1">
          <mxGeometry relative="1" as="geometry" />
        </mxCell>
        <mxCell id="L10rVUzcokbx8senKPkJ-69" value="solicitudes" style="whiteSpace=wrap;html=1;align=center;" parent="1" vertex="1">
          <mxGeometry x="285" y="815" width="100" height="40" as="geometry" />
        </mxCell>
        <mxCell id="L10rVUzcokbx8senKPkJ-70" value="codigo" style="ellipse;whiteSpace=wrap;html=1;align=center;fontStyle=4;" parent="1" vertex="1">
          <mxGeometry x="135" y="775" width="100" height="40" as="geometry" />
        </mxCell>
        <mxCell id="L10rVUzcokbx8senKPkJ-71" value="usuario" style="ellipse;whiteSpace=wrap;html=1;align=center;" parent="1" vertex="1">
          <mxGeometry x="245" y="725" width="100" height="40" as="geometry" />
        </mxCell>
        <mxCell id="L10rVUzcokbx8senKPkJ-72" value="mensaje" style="ellipse;whiteSpace=wrap;html=1;align=center;" parent="1" vertex="1">
          <mxGeometry x="175" y="920" width="100" height="40" as="geometry" />
        </mxCell>
        <mxCell id="L10rVUzcokbx8senKPkJ-77" value="codigoUsuario" style="ellipse;whiteSpace=wrap;html=1;align=center;" parent="1" vertex="1">
          <mxGeometry x="855" y="470" width="100" height="40" as="geometry" />
        </mxCell>
        <mxCell id="L10rVUzcokbx8senKPkJ-85" value="codigo" style="ellipse;whiteSpace=wrap;html=1;align=center;fontStyle=4;" parent="1" vertex="1">
          <mxGeometry x="845" y="530" width="100" height="40" as="geometry" />
        </mxCell>
        <mxCell id="L10rVUzcokbx8senKPkJ-87" value="codigo" style="ellipse;whiteSpace=wrap;html=1;align=center;fontStyle=4;" parent="1" vertex="1">
          <mxGeometry x="699" y="110" width="100" height="40" as="geometry" />
        </mxCell>
        <mxCell id="L10rVUzcokbx8senKPkJ-89" value="codigoUsuario" style="ellipse;whiteSpace=wrap;html=1;align=center;" parent="1" vertex="1">
          <mxGeometry x="740" y="30" width="100" height="40" as="geometry" />
        </mxCell>
        <mxCell id="jXXUjzo4BKxj_JuMPKdT-5" style="edgeStyle=orthogonalEdgeStyle;rounded=0;orthogonalLoop=1;jettySize=auto;html=1;exitX=1;exitY=0.5;exitDx=0;exitDy=0;entryX=0;entryY=0.5;entryDx=0;entryDy=0;endArrow=none;endFill=0;" parent="1" source="jXXUjzo4BKxj_JuMPKdT-1" target="voDOwXzz-UpNFZeyh3o8-1" edge="1">
          <mxGeometry relative="1" as="geometry" />
        </mxCell>
        <mxCell id="jXXUjzo4BKxj_JuMPKdT-8" style="edgeStyle=orthogonalEdgeStyle;rounded=0;orthogonalLoop=1;jettySize=auto;html=1;entryX=0;entryY=0.5;entryDx=0;entryDy=0;endArrow=none;endFill=0;" parent="1" source="jXXUjzo4BKxj_JuMPKdT-1" target="L10rVUzcokbx8senKPkJ-22" edge="1">
          <mxGeometry relative="1" as="geometry" />
        </mxCell>
        <mxCell id="jXXUjzo4BKxj_JuMPKdT-9" style="rounded=0;orthogonalLoop=1;jettySize=auto;html=1;exitX=0.5;exitY=0;exitDx=0;exitDy=0;entryX=0.5;entryY=1;entryDx=0;entryDy=0;edgeStyle=orthogonalEdgeStyle;endArrow=none;endFill=0;" parent="1" source="jXXUjzo4BKxj_JuMPKdT-1" target="L10rVUzcokbx8senKPkJ-29" edge="1">
          <mxGeometry relative="1" as="geometry" />
        </mxCell>
        <mxCell id="jXXUjzo4BKxj_JuMPKdT-1" value="tiene" style="shape=rhombus;perimeter=rhombusPerimeter;whiteSpace=wrap;html=1;align=center;" parent="1" vertex="1">
          <mxGeometry x="585" y="220" width="120" height="60" as="geometry" />
        </mxCell>
        <mxCell id="jXXUjzo4BKxj_JuMPKdT-3" value="curriculum" style="ellipse;whiteSpace=wrap;html=1;align=center;" parent="1" vertex="1">
          <mxGeometry x="300" y="130" width="100" height="40" as="geometry" />
        </mxCell>
        <mxCell id="jXXUjzo4BKxj_JuMPKdT-11" value="vision" style="ellipse;whiteSpace=wrap;html=1;align=center;" parent="1" vertex="1">
          <mxGeometry x="20" y="370" width="100" height="40" as="geometry" />
        </mxCell>
        <mxCell id="jXXUjzo4BKxj_JuMPKdT-12" value="mision" style="ellipse;whiteSpace=wrap;html=1;align=center;" parent="1" vertex="1">
          <mxGeometry x="235" y="430" width="100" height="40" as="geometry" />
        </mxCell>
        <mxCell id="jXXUjzo4BKxj_JuMPKdT-23" style="rounded=0;orthogonalLoop=1;jettySize=auto;html=1;exitX=0.5;exitY=1;exitDx=0;exitDy=0;entryX=1;entryY=0.5;entryDx=0;entryDy=0;endArrow=none;endFill=0;" parent="1" source="jXXUjzo4BKxj_JuMPKdT-17" target="jXXUjzo4BKxj_JuMPKdT-20" edge="1">
          <mxGeometry relative="1" as="geometry" />
        </mxCell>
        <mxCell id="jXXUjzo4BKxj_JuMPKdT-24" style="rounded=0;orthogonalLoop=1;jettySize=auto;html=1;exitX=0.5;exitY=1;exitDx=0;exitDy=0;entryX=0.5;entryY=0;entryDx=0;entryDy=0;endArrow=none;endFill=0;" parent="1" source="jXXUjzo4BKxj_JuMPKdT-17" target="jXXUjzo4BKxj_JuMPKdT-19" edge="1">
          <mxGeometry relative="1" as="geometry" />
        </mxCell>
        <mxCell id="jXXUjzo4BKxj_JuMPKdT-25" style="rounded=0;orthogonalLoop=1;jettySize=auto;html=1;exitX=0.5;exitY=1;exitDx=0;exitDy=0;entryX=0;entryY=0.5;entryDx=0;entryDy=0;endArrow=none;endFill=0;" parent="1" source="jXXUjzo4BKxj_JuMPKdT-17" target="jXXUjzo4BKxj_JuMPKdT-18" edge="1">
          <mxGeometry relative="1" as="geometry" />
        </mxCell>
        <mxCell id="jXXUjzo4BKxj_JuMPKdT-17" value="Categorias" style="whiteSpace=wrap;html=1;align=center;" parent="1" vertex="1">
          <mxGeometry x="1295" y="230" width="100" height="40" as="geometry" />
        </mxCell>
        <mxCell id="jXXUjzo4BKxj_JuMPKdT-18" value="descripción" style="ellipse;whiteSpace=wrap;html=1;align=center;" parent="1" vertex="1">
          <mxGeometry x="1415" y="275" width="100" height="40" as="geometry" />
        </mxCell>
        <mxCell id="jXXUjzo4BKxj_JuMPKdT-19" value="nombre" style="ellipse;whiteSpace=wrap;html=1;align=center;" parent="1" vertex="1">
          <mxGeometry x="1295" y="305" width="100" height="40" as="geometry" />
        </mxCell>
        <mxCell id="jXXUjzo4BKxj_JuMPKdT-20" value="codigo" style="ellipse;whiteSpace=wrap;html=1;align=center;fontStyle=4;" parent="1" vertex="1">
          <mxGeometry x="1184" y="275" width="100" height="40" as="geometry" />
        </mxCell>
        <mxCell id="jXXUjzo4BKxj_JuMPKdT-27" style="edgeStyle=orthogonalEdgeStyle;rounded=0;orthogonalLoop=1;jettySize=auto;html=1;exitX=1;exitY=0.5;exitDx=0;exitDy=0;entryX=0;entryY=0.5;entryDx=0;entryDy=0;endArrow=none;endFill=0;" parent="1" source="jXXUjzo4BKxj_JuMPKdT-21" target="jXXUjzo4BKxj_JuMPKdT-17" edge="1">
          <mxGeometry relative="1" as="geometry" />
        </mxCell>
        <mxCell id="jXXUjzo4BKxj_JuMPKdT-21" value="contiene" style="shape=rhombus;perimeter=rhombusPerimeter;whiteSpace=wrap;html=1;align=center;" parent="1" vertex="1">
          <mxGeometry x="1035" y="220" width="120" height="60" as="geometry" />
        </mxCell>
        <mxCell id="jXXUjzo4BKxj_JuMPKdT-31" style="edgeStyle=orthogonalEdgeStyle;rounded=0;orthogonalLoop=1;jettySize=auto;html=1;exitX=1;exitY=0.5;exitDx=0;exitDy=0;entryX=0;entryY=0.5;entryDx=0;entryDy=0;endArrow=none;endFill=0;" parent="1" source="jXXUjzo4BKxj_JuMPKdT-28" target="jXXUjzo4BKxj_JuMPKdT-30" edge="1">
          <mxGeometry relative="1" as="geometry" />
        </mxCell>
        <mxCell id="jXXUjzo4BKxj_JuMPKdT-40" style="edgeStyle=orthogonalEdgeStyle;rounded=0;orthogonalLoop=1;jettySize=auto;html=1;exitX=0;exitY=0.5;exitDx=0;exitDy=0;entryX=1;entryY=0.5;entryDx=0;entryDy=0;endArrow=none;endFill=0;" parent="1" source="jXXUjzo4BKxj_JuMPKdT-28" target="jXXUjzo4BKxj_JuMPKdT-38" edge="1">
          <mxGeometry relative="1" as="geometry" />
        </mxCell>
        <mxCell id="jXXUjzo4BKxj_JuMPKdT-28" value="Solicitante" style="whiteSpace=wrap;html=1;align=center;" parent="1" vertex="1">
          <mxGeometry x="615" y="755" width="100" height="40" as="geometry" />
        </mxCell>
        <mxCell id="jXXUjzo4BKxj_JuMPKdT-35" style="edgeStyle=orthogonalEdgeStyle;rounded=0;orthogonalLoop=1;jettySize=auto;html=1;exitX=1;exitY=0.5;exitDx=0;exitDy=0;entryX=0;entryY=0.5;entryDx=0;entryDy=0;endArrow=none;endFill=0;" parent="1" source="jXXUjzo4BKxj_JuMPKdT-29" target="jXXUjzo4BKxj_JuMPKdT-32" edge="1">
          <mxGeometry relative="1" as="geometry" />
        </mxCell>
        <mxCell id="jXXUjzo4BKxj_JuMPKdT-29" value="Empleador" style="whiteSpace=wrap;html=1;align=center;" parent="1" vertex="1">
          <mxGeometry x="615" y="885" width="100" height="40" as="geometry" />
        </mxCell>
        <mxCell id="jXXUjzo4BKxj_JuMPKdT-36" style="edgeStyle=orthogonalEdgeStyle;rounded=0;orthogonalLoop=1;jettySize=auto;html=1;exitX=1;exitY=0.5;exitDx=0;exitDy=0;entryX=0;entryY=0.5;entryDx=0;entryDy=0;endArrow=none;endFill=0;" parent="1" source="jXXUjzo4BKxj_JuMPKdT-30" target="voDOwXzz-UpNFZeyh3o8-9" edge="1">
          <mxGeometry relative="1" as="geometry">
            <Array as="points">
              <mxPoint x="965" y="775" />
              <mxPoint x="965" y="845" />
            </Array>
          </mxGeometry>
        </mxCell>
        <mxCell id="jXXUjzo4BKxj_JuMPKdT-30" value="busca" style="shape=rhombus;perimeter=rhombusPerimeter;whiteSpace=wrap;html=1;align=center;" parent="1" vertex="1">
          <mxGeometry x="775" y="745" width="120" height="60" as="geometry" />
        </mxCell>
        <mxCell id="jXXUjzo4BKxj_JuMPKdT-37" style="edgeStyle=orthogonalEdgeStyle;rounded=0;orthogonalLoop=1;jettySize=auto;html=1;exitX=1;exitY=0.5;exitDx=0;exitDy=0;entryX=0;entryY=0.5;entryDx=0;entryDy=0;endArrow=none;endFill=0;" parent="1" source="jXXUjzo4BKxj_JuMPKdT-32" target="voDOwXzz-UpNFZeyh3o8-9" edge="1">
          <mxGeometry relative="1" as="geometry">
            <Array as="points">
              <mxPoint x="965" y="905" />
              <mxPoint x="965" y="845" />
            </Array>
          </mxGeometry>
        </mxCell>
        <mxCell id="jXXUjzo4BKxj_JuMPKdT-46" style="edgeStyle=orthogonalEdgeStyle;rounded=0;orthogonalLoop=1;jettySize=auto;html=1;exitX=0.5;exitY=1;exitDx=0;exitDy=0;entryX=0;entryY=0.5;entryDx=0;entryDy=0;endArrow=none;endFill=0;" parent="1" source="jXXUjzo4BKxj_JuMPKdT-32" target="jXXUjzo4BKxj_JuMPKdT-63" edge="1">
          <mxGeometry relative="1" as="geometry">
            <mxPoint x="835" y="990" as="targetPoint" />
          </mxGeometry>
        </mxCell>
        <mxCell id="1wsnQfbL-bB5Dj-azG1w-52" style="edgeStyle=orthogonalEdgeStyle;rounded=0;orthogonalLoop=1;jettySize=auto;html=1;exitX=0.5;exitY=1;exitDx=0;exitDy=0;entryX=1;entryY=0.5;entryDx=0;entryDy=0;endArrow=none;endFill=0;" parent="1" source="jXXUjzo4BKxj_JuMPKdT-32" target="1wsnQfbL-bB5Dj-azG1w-43" edge="1">
          <mxGeometry relative="1" as="geometry" />
        </mxCell>
        <mxCell id="jXXUjzo4BKxj_JuMPKdT-32" value="Gestiona" style="shape=rhombus;perimeter=rhombusPerimeter;whiteSpace=wrap;html=1;align=center;" parent="1" vertex="1">
          <mxGeometry x="775" y="875" width="120" height="60" as="geometry" />
        </mxCell>
        <mxCell id="jXXUjzo4BKxj_JuMPKdT-41" style="edgeStyle=orthogonalEdgeStyle;rounded=0;orthogonalLoop=1;jettySize=auto;html=1;exitX=0;exitY=0.5;exitDx=0;exitDy=0;entryX=0.5;entryY=0;entryDx=0;entryDy=0;endArrow=none;endFill=0;" parent="1" source="jXXUjzo4BKxj_JuMPKdT-38" target="L10rVUzcokbx8senKPkJ-69" edge="1">
          <mxGeometry relative="1" as="geometry" />
        </mxCell>
        <mxCell id="jXXUjzo4BKxj_JuMPKdT-38" value="realiza" style="shape=rhombus;perimeter=rhombusPerimeter;whiteSpace=wrap;html=1;align=center;" parent="1" vertex="1">
          <mxGeometry x="465" y="745" width="120" height="60" as="geometry" />
        </mxCell>
        <mxCell id="jXXUjzo4BKxj_JuMPKdT-52" style="edgeStyle=orthogonalEdgeStyle;rounded=0;orthogonalLoop=1;jettySize=auto;html=1;exitX=0.5;exitY=0;exitDx=0;exitDy=0;entryX=0.5;entryY=1;entryDx=0;entryDy=0;endArrow=none;endFill=0;" parent="1" source="jXXUjzo4BKxj_JuMPKdT-42" target="L10rVUzcokbx8senKPkJ-69" edge="1">
          <mxGeometry relative="1" as="geometry" />
        </mxCell>
        <mxCell id="jXXUjzo4BKxj_JuMPKdT-42" value="tiene" style="shape=rhombus;perimeter=rhombusPerimeter;whiteSpace=wrap;html=1;align=center;" parent="1" vertex="1">
          <mxGeometry x="275" y="955" width="120" height="60" as="geometry" />
        </mxCell>
        <mxCell id="jXXUjzo4BKxj_JuMPKdT-51" style="edgeStyle=orthogonalEdgeStyle;rounded=0;orthogonalLoop=1;jettySize=auto;html=1;exitX=0.5;exitY=0;exitDx=0;exitDy=0;entryX=0.5;entryY=1;entryDx=0;entryDy=0;endArrow=none;endFill=0;" parent="1" source="jXXUjzo4BKxj_JuMPKdT-50" target="jXXUjzo4BKxj_JuMPKdT-42" edge="1">
          <mxGeometry relative="1" as="geometry" />
        </mxCell>
        <mxCell id="jXXUjzo4BKxj_JuMPKdT-50" value="ofertas" style="whiteSpace=wrap;html=1;align=center;" parent="1" vertex="1">
          <mxGeometry x="285" y="1075" width="100" height="40" as="geometry" />
        </mxCell>
        <mxCell id="jXXUjzo4BKxj_JuMPKdT-56" style="rounded=0;orthogonalLoop=1;jettySize=auto;html=1;exitX=1;exitY=0.5;exitDx=0;exitDy=0;entryX=0;entryY=0.5;entryDx=0;entryDy=0;endArrow=none;endFill=0;" parent="1" source="jXXUjzo4BKxj_JuMPKdT-63" target="jXXUjzo4BKxj_JuMPKdT-67" edge="1">
          <mxGeometry relative="1" as="geometry" />
        </mxCell>
        <mxCell id="jXXUjzo4BKxj_JuMPKdT-57" style="rounded=0;orthogonalLoop=1;jettySize=auto;html=1;exitX=0.5;exitY=1;exitDx=0;exitDy=0;entryX=0.5;entryY=0;entryDx=0;entryDy=0;endArrow=none;endFill=0;" parent="1" source="jXXUjzo4BKxj_JuMPKdT-63" target="jXXUjzo4BKxj_JuMPKdT-70" edge="1">
          <mxGeometry relative="1" as="geometry">
            <mxPoint x="1330" y="1249" as="targetPoint" />
          </mxGeometry>
        </mxCell>
        <mxCell id="jXXUjzo4BKxj_JuMPKdT-58" style="rounded=0;orthogonalLoop=1;jettySize=auto;html=1;exitX=0.5;exitY=1;exitDx=0;exitDy=0;entryX=0.5;entryY=0;entryDx=0;entryDy=0;endArrow=none;endFill=0;" parent="1" source="jXXUjzo4BKxj_JuMPKdT-63" target="jXXUjzo4BKxj_JuMPKdT-69" edge="1">
          <mxGeometry relative="1" as="geometry">
            <mxPoint x="1220" y="1249" as="targetPoint" />
          </mxGeometry>
        </mxCell>
        <mxCell id="jXXUjzo4BKxj_JuMPKdT-59" style="rounded=0;orthogonalLoop=1;jettySize=auto;html=1;exitX=0;exitY=0.5;exitDx=0;exitDy=0;entryX=1;entryY=0.5;entryDx=0;entryDy=0;endArrow=none;endFill=0;" parent="1" source="jXXUjzo4BKxj_JuMPKdT-63" target="jXXUjzo4BKxj_JuMPKdT-68" edge="1">
          <mxGeometry relative="1" as="geometry" />
        </mxCell>
        <mxCell id="jXXUjzo4BKxj_JuMPKdT-60" style="rounded=0;orthogonalLoop=1;jettySize=auto;html=1;exitX=0.25;exitY=0;exitDx=0;exitDy=0;entryX=1;entryY=0.5;entryDx=0;entryDy=0;endArrow=none;endFill=0;" parent="1" source="jXXUjzo4BKxj_JuMPKdT-63" target="jXXUjzo4BKxj_JuMPKdT-64" edge="1">
          <mxGeometry relative="1" as="geometry" />
        </mxCell>
        <mxCell id="jXXUjzo4BKxj_JuMPKdT-61" style="rounded=0;orthogonalLoop=1;jettySize=auto;html=1;exitX=0.5;exitY=0;exitDx=0;exitDy=0;entryX=0.5;entryY=1;entryDx=0;entryDy=0;endArrow=none;endFill=0;" parent="1" source="jXXUjzo4BKxj_JuMPKdT-63" target="jXXUjzo4BKxj_JuMPKdT-65" edge="1">
          <mxGeometry relative="1" as="geometry" />
        </mxCell>
        <mxCell id="jXXUjzo4BKxj_JuMPKdT-62" style="rounded=0;orthogonalLoop=1;jettySize=auto;html=1;exitX=0.75;exitY=0;exitDx=0;exitDy=0;entryX=0.5;entryY=1;entryDx=0;entryDy=0;endArrow=none;endFill=0;" parent="1" source="jXXUjzo4BKxj_JuMPKdT-63" target="jXXUjzo4BKxj_JuMPKdT-66" edge="1">
          <mxGeometry relative="1" as="geometry" />
        </mxCell>
        <mxCell id="jXXUjzo4BKxj_JuMPKdT-63" value="Entrevistas" style="whiteSpace=wrap;html=1;align=center;" parent="1" vertex="1">
          <mxGeometry x="1222" y="1180" width="100" height="40" as="geometry" />
        </mxCell>
        <mxCell id="jXXUjzo4BKxj_JuMPKdT-64" value="codigo" style="ellipse;whiteSpace=wrap;html=1;align=center;fontStyle=4;" parent="1" vertex="1">
          <mxGeometry x="1065" y="1155" width="100" height="40" as="geometry" />
        </mxCell>
        <mxCell id="jXXUjzo4BKxj_JuMPKdT-65" value="usuario" style="ellipse;whiteSpace=wrap;html=1;align=center;" parent="1" vertex="1">
          <mxGeometry x="1130" y="1090" width="100" height="40" as="geometry" />
        </mxCell>
        <mxCell id="jXXUjzo4BKxj_JuMPKdT-66" value="fecha" style="ellipse;whiteSpace=wrap;html=1;align=center;" parent="1" vertex="1">
          <mxGeometry x="1315" y="1100" width="100" height="40" as="geometry" />
        </mxCell>
        <mxCell id="jXXUjzo4BKxj_JuMPKdT-67" value="hora" style="ellipse;whiteSpace=wrap;html=1;align=center;" parent="1" vertex="1">
          <mxGeometry x="1375" y="1180" width="100" height="40" as="geometry" />
        </mxCell>
        <mxCell id="jXXUjzo4BKxj_JuMPKdT-68" value="ubicación" style="ellipse;whiteSpace=wrap;html=1;align=center;" parent="1" vertex="1">
          <mxGeometry x="1065" y="1230" width="100" height="40" as="geometry" />
        </mxCell>
        <mxCell id="jXXUjzo4BKxj_JuMPKdT-69" value="estado" style="ellipse;whiteSpace=wrap;html=1;align=center;" parent="1" vertex="1">
          <mxGeometry x="1165" y="1275" width="100" height="40" as="geometry" />
        </mxCell>
        <mxCell id="jXXUjzo4BKxj_JuMPKdT-70" value="notas" style="ellipse;whiteSpace=wrap;html=1;align=center;" parent="1" vertex="1">
          <mxGeometry x="1400" y="1260" width="100" height="40" as="geometry" />
        </mxCell>
        <mxCell id="jXXUjzo4BKxj_JuMPKdT-74" value="" style="edgeStyle=orthogonalEdgeStyle;rounded=0;orthogonalLoop=1;jettySize=auto;html=1;endArrow=none;endFill=0;" parent="1" source="jXXUjzo4BKxj_JuMPKdT-72" target="jXXUjzo4BKxj_JuMPKdT-63" edge="1">
          <mxGeometry relative="1" as="geometry" />
        </mxCell>
        <mxCell id="jXXUjzo4BKxj_JuMPKdT-72" value="tiene" style="shape=rhombus;perimeter=rhombusPerimeter;whiteSpace=wrap;html=1;align=center;" parent="1" vertex="1">
          <mxGeometry x="1212" y="1015" width="120" height="60" as="geometry" />
        </mxCell>
        <mxCell id="jXXUjzo4BKxj_JuMPKdT-78" style="edgeStyle=orthogonalEdgeStyle;rounded=0;orthogonalLoop=1;jettySize=auto;html=1;exitX=0.5;exitY=0;exitDx=0;exitDy=0;entryX=0.5;entryY=1;entryDx=0;entryDy=0;endArrow=none;endFill=0;" parent="1" source="jXXUjzo4BKxj_JuMPKdT-75" target="n7jX9IWa5AHNB72dme2B-1" edge="1">
          <mxGeometry relative="1" as="geometry" />
        </mxCell>
        <mxCell id="jXXUjzo4BKxj_JuMPKdT-84" style="edgeStyle=orthogonalEdgeStyle;rounded=0;orthogonalLoop=1;jettySize=auto;html=1;exitX=1;exitY=0.5;exitDx=0;exitDy=0;entryX=0;entryY=0.5;entryDx=0;entryDy=0;endArrow=none;endFill=0;" parent="1" source="jXXUjzo4BKxj_JuMPKdT-75" target="jXXUjzo4BKxj_JuMPKdT-80" edge="1">
          <mxGeometry relative="1" as="geometry" />
        </mxCell>
        <mxCell id="jXXUjzo4BKxj_JuMPKdT-85" style="edgeStyle=orthogonalEdgeStyle;rounded=0;orthogonalLoop=1;jettySize=auto;html=1;exitX=0.5;exitY=1;exitDx=0;exitDy=0;entryX=0.5;entryY=0;entryDx=0;entryDy=0;endArrow=none;endFill=0;" parent="1" source="jXXUjzo4BKxj_JuMPKdT-75" target="jXXUjzo4BKxj_JuMPKdT-81" edge="1">
          <mxGeometry relative="1" as="geometry" />
        </mxCell>
        <mxCell id="jXXUjzo4BKxj_JuMPKdT-86" style="edgeStyle=orthogonalEdgeStyle;rounded=0;orthogonalLoop=1;jettySize=auto;html=1;exitX=0;exitY=0.5;exitDx=0;exitDy=0;entryX=1;entryY=0.5;entryDx=0;entryDy=0;endArrow=none;endFill=0;" parent="1" source="jXXUjzo4BKxj_JuMPKdT-75" target="jXXUjzo4BKxj_JuMPKdT-82" edge="1">
          <mxGeometry relative="1" as="geometry" />
        </mxCell>
        <mxCell id="jXXUjzo4BKxj_JuMPKdT-75" value="contiene" style="shape=rhombus;perimeter=rhombusPerimeter;whiteSpace=wrap;html=1;align=center;" parent="1" vertex="1">
          <mxGeometry x="140" y="550" width="120" height="60" as="geometry" />
        </mxCell>
        <mxCell id="jXXUjzo4BKxj_JuMPKdT-77" style="edgeStyle=orthogonalEdgeStyle;rounded=0;orthogonalLoop=1;jettySize=auto;html=1;exitX=0.5;exitY=1;exitDx=0;exitDy=0;" parent="1" source="jXXUjzo4BKxj_JuMPKdT-11" target="jXXUjzo4BKxj_JuMPKdT-11" edge="1">
          <mxGeometry relative="1" as="geometry" />
        </mxCell>
        <mxCell id="jXXUjzo4BKxj_JuMPKdT-80" value="Solicitante" style="whiteSpace=wrap;html=1;align=center;" parent="1" vertex="1">
          <mxGeometry x="320" y="560" width="100" height="40" as="geometry" />
        </mxCell>
        <mxCell id="jXXUjzo4BKxj_JuMPKdT-81" value="Empleador" style="whiteSpace=wrap;html=1;align=center;" parent="1" vertex="1">
          <mxGeometry x="150" y="640" width="100" height="40" as="geometry" />
        </mxCell>
        <mxCell id="jXXUjzo4BKxj_JuMPKdT-82" value="&amp;nbsp;Solicitante" style="whiteSpace=wrap;html=1;align=center;" parent="1" vertex="1">
          <mxGeometry x="10" y="560" width="100" height="40" as="geometry" />
        </mxCell>
        <mxCell id="jXXUjzo4BKxj_JuMPKdT-91" style="edgeStyle=orthogonalEdgeStyle;rounded=0;orthogonalLoop=1;jettySize=auto;html=1;exitX=1;exitY=0.5;exitDx=0;exitDy=0;entryX=0;entryY=0.5;entryDx=0;entryDy=0;endArrow=none;endFill=0;" parent="1" source="jXXUjzo4BKxj_JuMPKdT-88" target="jXXUjzo4BKxj_JuMPKdT-89" edge="1">
          <mxGeometry relative="1" as="geometry" />
        </mxCell>
        <mxCell id="jXXUjzo4BKxj_JuMPKdT-88" value="Administrador" style="whiteSpace=wrap;html=1;align=center;" parent="1" vertex="1">
          <mxGeometry x="90" y="1275" width="100" height="40" as="geometry" />
        </mxCell>
        <mxCell id="jXXUjzo4BKxj_JuMPKdT-100" style="edgeStyle=orthogonalEdgeStyle;rounded=0;orthogonalLoop=1;jettySize=auto;html=1;exitX=0.5;exitY=0;exitDx=0;exitDy=0;entryX=0.5;entryY=1;entryDx=0;entryDy=0;endArrow=none;endFill=0;" parent="1" source="jXXUjzo4BKxj_JuMPKdT-89" target="jXXUjzo4BKxj_JuMPKdT-92" edge="1">
          <mxGeometry relative="1" as="geometry" />
        </mxCell>
        <mxCell id="jXXUjzo4BKxj_JuMPKdT-102" style="edgeStyle=orthogonalEdgeStyle;rounded=0;orthogonalLoop=1;jettySize=auto;html=1;exitX=0.5;exitY=1;exitDx=0;exitDy=0;entryX=0.5;entryY=0;entryDx=0;entryDy=0;endArrow=none;endFill=0;" parent="1" source="jXXUjzo4BKxj_JuMPKdT-89" target="jXXUjzo4BKxj_JuMPKdT-101" edge="1">
          <mxGeometry relative="1" as="geometry" />
        </mxCell>
        <mxCell id="1wsnQfbL-bB5Dj-azG1w-42" style="edgeStyle=orthogonalEdgeStyle;rounded=0;orthogonalLoop=1;jettySize=auto;html=1;exitX=1;exitY=0.5;exitDx=0;exitDy=0;entryX=0;entryY=0.5;entryDx=0;entryDy=0;endArrow=none;endFill=0;" parent="1" source="jXXUjzo4BKxj_JuMPKdT-89" target="1wsnQfbL-bB5Dj-azG1w-34" edge="1">
          <mxGeometry relative="1" as="geometry" />
        </mxCell>
        <mxCell id="1wsnQfbL-bB5Dj-azG1w-53" style="edgeStyle=orthogonalEdgeStyle;rounded=0;orthogonalLoop=1;jettySize=auto;html=1;exitX=0.5;exitY=1;exitDx=0;exitDy=0;entryX=0.5;entryY=0;entryDx=0;entryDy=0;endArrow=none;endFill=0;" parent="1" source="jXXUjzo4BKxj_JuMPKdT-89" target="1wsnQfbL-bB5Dj-azG1w-10" edge="1">
          <mxGeometry relative="1" as="geometry" />
        </mxCell>
        <mxCell id="jXXUjzo4BKxj_JuMPKdT-89" value="Gestiona" style="shape=rhombus;perimeter=rhombusPerimeter;whiteSpace=wrap;html=1;align=center;" parent="1" vertex="1">
          <mxGeometry x="265" y="1265" width="120" height="60" as="geometry" />
        </mxCell>
        <mxCell id="jXXUjzo4BKxj_JuMPKdT-97" style="edgeStyle=orthogonalEdgeStyle;rounded=0;orthogonalLoop=1;jettySize=auto;html=1;exitX=1;exitY=0.5;exitDx=0;exitDy=0;entryX=0;entryY=0.5;entryDx=0;entryDy=0;endArrow=none;endFill=0;" parent="1" source="jXXUjzo4BKxj_JuMPKdT-92" target="jXXUjzo4BKxj_JuMPKdT-98" edge="1">
          <mxGeometry relative="1" as="geometry">
            <mxPoint x="420.0000000000001" y="1215" as="targetPoint" />
          </mxGeometry>
        </mxCell>
        <mxCell id="jXXUjzo4BKxj_JuMPKdT-99" style="edgeStyle=orthogonalEdgeStyle;rounded=0;orthogonalLoop=1;jettySize=auto;html=1;exitX=0;exitY=0.5;exitDx=0;exitDy=0;entryX=1;entryY=0.5;entryDx=0;entryDy=0;endArrow=none;endFill=0;" parent="1" source="jXXUjzo4BKxj_JuMPKdT-92" target="jXXUjzo4BKxj_JuMPKdT-93" edge="1">
          <mxGeometry relative="1" as="geometry" />
        </mxCell>
        <mxCell id="jXXUjzo4BKxj_JuMPKdT-92" value="comision" style="whiteSpace=wrap;html=1;align=center;" parent="1" vertex="1">
          <mxGeometry x="275" y="1195" width="100" height="40" as="geometry" />
        </mxCell>
        <mxCell id="jXXUjzo4BKxj_JuMPKdT-93" value="codigo" style="ellipse;whiteSpace=wrap;html=1;align=center;fontStyle=4;" parent="1" vertex="1">
          <mxGeometry x="135" y="1195" width="100" height="40" as="geometry" />
        </mxCell>
        <mxCell id="jXXUjzo4BKxj_JuMPKdT-98" value="cantidad" style="ellipse;whiteSpace=wrap;html=1;align=center;" parent="1" vertex="1">
          <mxGeometry x="420" y="1195" width="100" height="40" as="geometry" />
        </mxCell>
        <mxCell id="jXXUjzo4BKxj_JuMPKdT-101" value="categorias" style="whiteSpace=wrap;html=1;align=center;" parent="1" vertex="1">
          <mxGeometry x="160" y="1400" width="100" height="40" as="geometry" />
        </mxCell>
        <mxCell id="1wsnQfbL-bB5Dj-azG1w-3" style="edgeStyle=orthogonalEdgeStyle;rounded=0;orthogonalLoop=1;jettySize=auto;html=1;exitX=1;exitY=0.5;exitDx=0;exitDy=0;entryX=0;entryY=0.5;entryDx=0;entryDy=0;endArrow=none;endFill=0;" parent="1" source="1wsnQfbL-bB5Dj-azG1w-2" target="L10rVUzcokbx8senKPkJ-22" edge="1">
          <mxGeometry relative="1" as="geometry" />
        </mxCell>
        <mxCell id="1wsnQfbL-bB5Dj-azG1w-2" value="cantidad" style="ellipse;whiteSpace=wrap;html=1;align=center;" parent="1" vertex="1">
          <mxGeometry x="530" y="520" width="100" height="40" as="geometry" />
        </mxCell>
        <mxCell id="1wsnQfbL-bB5Dj-azG1w-6" style="rounded=0;orthogonalLoop=1;jettySize=auto;html=1;exitX=1;exitY=0.5;exitDx=0;exitDy=0;entryX=0;entryY=0.5;entryDx=0;entryDy=0;endArrow=none;endFill=0;" parent="1" source="1wsnQfbL-bB5Dj-azG1w-4" target="L10rVUzcokbx8senKPkJ-69" edge="1">
          <mxGeometry relative="1" as="geometry" />
        </mxCell>
        <mxCell id="1wsnQfbL-bB5Dj-azG1w-4" value="codigoOferta" style="ellipse;whiteSpace=wrap;html=1;align=center;" parent="1" vertex="1">
          <mxGeometry x="120" y="860" width="100" height="40" as="geometry" />
        </mxCell>
        <mxCell id="1wsnQfbL-bB5Dj-azG1w-9" style="rounded=0;orthogonalLoop=1;jettySize=auto;html=1;exitX=0.5;exitY=0;exitDx=0;exitDy=0;endArrow=none;endFill=0;" parent="1" source="1wsnQfbL-bB5Dj-azG1w-7" target="jXXUjzo4BKxj_JuMPKdT-63" edge="1">
          <mxGeometry relative="1" as="geometry" />
        </mxCell>
        <mxCell id="1wsnQfbL-bB5Dj-azG1w-7" value="codigoOferta" style="ellipse;whiteSpace=wrap;html=1;align=center;" parent="1" vertex="1">
          <mxGeometry x="1270" y="1300" width="100" height="40" as="geometry" />
        </mxCell>
        <mxCell id="1wsnQfbL-bB5Dj-azG1w-23" style="rounded=0;orthogonalLoop=1;jettySize=auto;html=1;exitX=0.5;exitY=0;exitDx=0;exitDy=0;entryX=0.5;entryY=1;entryDx=0;entryDy=0;endArrow=none;endFill=0;" parent="1" source="1wsnQfbL-bB5Dj-azG1w-10" target="1wsnQfbL-bB5Dj-azG1w-22" edge="1">
          <mxGeometry relative="1" as="geometry" />
        </mxCell>
        <mxCell id="1wsnQfbL-bB5Dj-azG1w-10" value="cobroComision" style="whiteSpace=wrap;html=1;align=center;" parent="1" vertex="1">
          <mxGeometry x="380" y="1514" width="100" height="40" as="geometry" />
        </mxCell>
        <mxCell id="1wsnQfbL-bB5Dj-azG1w-12" style="rounded=0;orthogonalLoop=1;jettySize=auto;html=1;entryX=0;entryY=0.5;entryDx=0;entryDy=0;endArrow=none;endFill=0;" parent="1" source="1wsnQfbL-bB5Dj-azG1w-11" target="1wsnQfbL-bB5Dj-azG1w-10" edge="1">
          <mxGeometry relative="1" as="geometry" />
        </mxCell>
        <mxCell id="1wsnQfbL-bB5Dj-azG1w-11" value="codigo" style="ellipse;whiteSpace=wrap;html=1;align=center;fontStyle=4;" parent="1" vertex="1">
          <mxGeometry x="235" y="1554" width="100" height="40" as="geometry" />
        </mxCell>
        <mxCell id="1wsnQfbL-bB5Dj-azG1w-14" value="usuario" style="ellipse;whiteSpace=wrap;html=1;align=center;" parent="1" vertex="1">
          <mxGeometry x="260" y="1640" width="100" height="40" as="geometry" />
        </mxCell>
        <mxCell id="1wsnQfbL-bB5Dj-azG1w-15" style="rounded=0;orthogonalLoop=1;jettySize=auto;html=1;endArrow=none;endFill=0;exitX=0.5;exitY=0;exitDx=0;exitDy=0;entryX=0.5;entryY=1;entryDx=0;entryDy=0;" parent="1" source="1wsnQfbL-bB5Dj-azG1w-14" target="1wsnQfbL-bB5Dj-azG1w-10" edge="1">
          <mxGeometry relative="1" as="geometry">
            <mxPoint x="325" y="1544" as="sourcePoint" />
            <mxPoint x="405" y="1554" as="targetPoint" />
          </mxGeometry>
        </mxCell>
        <mxCell id="1wsnQfbL-bB5Dj-azG1w-17" style="rounded=0;orthogonalLoop=1;jettySize=auto;html=1;exitX=0.5;exitY=0;exitDx=0;exitDy=0;entryX=0.5;entryY=1;entryDx=0;entryDy=0;endArrow=none;endFill=0;" parent="1" source="1wsnQfbL-bB5Dj-azG1w-16" target="1wsnQfbL-bB5Dj-azG1w-10" edge="1">
          <mxGeometry relative="1" as="geometry" />
        </mxCell>
        <mxCell id="1wsnQfbL-bB5Dj-azG1w-16" value="oferta" style="ellipse;whiteSpace=wrap;html=1;align=center;" parent="1" vertex="1">
          <mxGeometry x="445" y="1660" width="100" height="40" as="geometry" />
        </mxCell>
        <mxCell id="1wsnQfbL-bB5Dj-azG1w-19" style="rounded=0;orthogonalLoop=1;jettySize=auto;html=1;exitX=0;exitY=0.5;exitDx=0;exitDy=0;entryX=1;entryY=0.5;entryDx=0;entryDy=0;endArrow=none;endFill=0;" parent="1" source="1wsnQfbL-bB5Dj-azG1w-18" target="1wsnQfbL-bB5Dj-azG1w-10" edge="1">
          <mxGeometry relative="1" as="geometry" />
        </mxCell>
        <mxCell id="1wsnQfbL-bB5Dj-azG1w-18" value="fecha" style="ellipse;whiteSpace=wrap;html=1;align=center;" parent="1" vertex="1">
          <mxGeometry x="615" y="1564" width="100" height="40" as="geometry" />
        </mxCell>
        <mxCell id="1wsnQfbL-bB5Dj-azG1w-20" value="codigoOferta" style="ellipse;whiteSpace=wrap;html=1;align=center;" parent="1" vertex="1">
          <mxGeometry x="505" y="1450" width="100" height="40" as="geometry" />
        </mxCell>
        <mxCell id="1wsnQfbL-bB5Dj-azG1w-21" style="rounded=0;orthogonalLoop=1;jettySize=auto;html=1;exitX=0;exitY=0.5;exitDx=0;exitDy=0;entryX=0.75;entryY=0;entryDx=0;entryDy=0;endArrow=none;endFill=0;" parent="1" source="1wsnQfbL-bB5Dj-azG1w-20" target="1wsnQfbL-bB5Dj-azG1w-10" edge="1">
          <mxGeometry relative="1" as="geometry">
            <mxPoint x="555" y="1544" as="sourcePoint" />
            <mxPoint x="490" y="1544" as="targetPoint" />
          </mxGeometry>
        </mxCell>
        <mxCell id="1wsnQfbL-bB5Dj-azG1w-22" value="toital" style="ellipse;whiteSpace=wrap;html=1;align=center;" parent="1" vertex="1">
          <mxGeometry x="275" y="1430" width="100" height="40" as="geometry" />
        </mxCell>
        <mxCell id="1wsnQfbL-bB5Dj-azG1w-27" style="rounded=0;orthogonalLoop=1;jettySize=auto;html=1;exitX=1;exitY=0.5;exitDx=0;exitDy=0;entryX=0;entryY=0.5;entryDx=0;entryDy=0;endArrow=none;endFill=0;" parent="1" source="1wsnQfbL-bB5Dj-azG1w-25" target="1wsnQfbL-bB5Dj-azG1w-10" edge="1">
          <mxGeometry relative="1" as="geometry" />
        </mxCell>
        <mxCell id="1wsnQfbL-bB5Dj-azG1w-25" value="categoria" style="ellipse;whiteSpace=wrap;html=1;align=center;" parent="1" vertex="1">
          <mxGeometry x="220" y="1490" width="100" height="40" as="geometry" />
        </mxCell>
        <mxCell id="1wsnQfbL-bB5Dj-azG1w-29" value="Invitado" style="whiteSpace=wrap;html=1;align=center;" parent="1" vertex="1">
          <mxGeometry x="1175" y="430" width="100" height="40" as="geometry" />
        </mxCell>
        <mxCell id="1wsnQfbL-bB5Dj-azG1w-31" style="rounded=0;orthogonalLoop=1;jettySize=auto;html=1;exitX=0.5;exitY=1;exitDx=0;exitDy=0;entryX=0.5;entryY=0;entryDx=0;entryDy=0;endArrow=none;endFill=0;" parent="1" source="1wsnQfbL-bB5Dj-azG1w-30" target="1wsnQfbL-bB5Dj-azG1w-29" edge="1">
          <mxGeometry relative="1" as="geometry" />
        </mxCell>
        <mxCell id="1wsnQfbL-bB5Dj-azG1w-30" value="vista" style="ellipse;whiteSpace=wrap;html=1;align=center;" parent="1" vertex="1">
          <mxGeometry x="1175" y="370" width="100" height="40" as="geometry" />
        </mxCell>
        <mxCell id="1wsnQfbL-bB5Dj-azG1w-33" style="rounded=0;orthogonalLoop=1;jettySize=auto;html=1;exitX=1;exitY=0.5;exitDx=0;exitDy=0;entryX=0;entryY=0.5;entryDx=0;entryDy=0;endArrow=none;endFill=0;" parent="1" source="1wsnQfbL-bB5Dj-azG1w-32" target="1wsnQfbL-bB5Dj-azG1w-29" edge="1">
          <mxGeometry relative="1" as="geometry" />
        </mxCell>
        <mxCell id="1wsnQfbL-bB5Dj-azG1w-32" value="codigo" style="ellipse;whiteSpace=wrap;html=1;align=center;fontStyle=4;" parent="1" vertex="1">
          <mxGeometry x="1035" y="430" width="100" height="40" as="geometry" />
        </mxCell>
        <mxCell id="1wsnQfbL-bB5Dj-azG1w-34" value="historialComsion" style="whiteSpace=wrap;html=1;align=center;" parent="1" vertex="1">
          <mxGeometry x="540" y="1275" width="100" height="40" as="geometry" />
        </mxCell>
        <mxCell id="1wsnQfbL-bB5Dj-azG1w-35" value="codigo" style="ellipse;whiteSpace=wrap;html=1;align=center;fontStyle=4;" parent="1" vertex="1">
          <mxGeometry x="510" y="1370" width="100" height="40" as="geometry" />
        </mxCell>
        <mxCell id="1wsnQfbL-bB5Dj-azG1w-36" style="rounded=0;orthogonalLoop=1;jettySize=auto;html=1;exitX=0.5;exitY=1;exitDx=0;exitDy=0;entryX=0.5;entryY=0;entryDx=0;entryDy=0;endArrow=none;endFill=0;" parent="1" source="1wsnQfbL-bB5Dj-azG1w-34" target="1wsnQfbL-bB5Dj-azG1w-35" edge="1">
          <mxGeometry relative="1" as="geometry">
            <mxPoint x="430" y="1590" as="sourcePoint" />
            <mxPoint x="380" y="1634" as="targetPoint" />
          </mxGeometry>
        </mxCell>
        <mxCell id="1wsnQfbL-bB5Dj-azG1w-37" value="comision" style="ellipse;whiteSpace=wrap;html=1;align=center;" parent="1" vertex="1">
          <mxGeometry x="630" y="1370" width="100" height="40" as="geometry" />
        </mxCell>
        <mxCell id="1wsnQfbL-bB5Dj-azG1w-39" style="rounded=0;orthogonalLoop=1;jettySize=auto;html=1;exitX=0.5;exitY=1;exitDx=0;exitDy=0;entryX=0.5;entryY=0;entryDx=0;entryDy=0;endArrow=none;endFill=0;" parent="1" source="1wsnQfbL-bB5Dj-azG1w-34" target="1wsnQfbL-bB5Dj-azG1w-37" edge="1">
          <mxGeometry relative="1" as="geometry">
            <mxPoint x="635" y="1325" as="sourcePoint" />
            <mxPoint x="590" y="1380" as="targetPoint" />
          </mxGeometry>
        </mxCell>
        <mxCell id="1wsnQfbL-bB5Dj-azG1w-41" style="rounded=0;orthogonalLoop=1;jettySize=auto;html=1;exitX=0;exitY=0.5;exitDx=0;exitDy=0;entryX=1;entryY=0.5;entryDx=0;entryDy=0;endArrow=none;endFill=0;" parent="1" source="1wsnQfbL-bB5Dj-azG1w-40" target="1wsnQfbL-bB5Dj-azG1w-34" edge="1">
          <mxGeometry relative="1" as="geometry" />
        </mxCell>
        <mxCell id="1wsnQfbL-bB5Dj-azG1w-40" value="fecha" style="ellipse;whiteSpace=wrap;html=1;align=center;" parent="1" vertex="1">
          <mxGeometry x="715" y="1275" width="100" height="40" as="geometry" />
        </mxCell>
        <mxCell id="1wsnQfbL-bB5Dj-azG1w-43" value="postulacionRetirada" style="whiteSpace=wrap;html=1;align=center;" parent="1" vertex="1">
          <mxGeometry x="540" y="995" width="137.5" height="40" as="geometry" />
        </mxCell>
        <mxCell id="1wsnQfbL-bB5Dj-azG1w-44" value="codigo" style="ellipse;whiteSpace=wrap;html=1;align=center;fontStyle=4;" parent="1" vertex="1">
          <mxGeometry x="510" y="1090" width="100" height="40" as="geometry" />
        </mxCell>
        <mxCell id="1wsnQfbL-bB5Dj-azG1w-45" style="rounded=0;orthogonalLoop=1;jettySize=auto;html=1;exitX=0.5;exitY=1;exitDx=0;exitDy=0;entryX=0.5;entryY=0;entryDx=0;entryDy=0;endArrow=none;endFill=0;" parent="1" source="1wsnQfbL-bB5Dj-azG1w-43" target="1wsnQfbL-bB5Dj-azG1w-44" edge="1">
          <mxGeometry relative="1" as="geometry">
            <mxPoint x="430" y="1310" as="sourcePoint" />
            <mxPoint x="380" y="1354" as="targetPoint" />
          </mxGeometry>
        </mxCell>
        <mxCell id="1wsnQfbL-bB5Dj-azG1w-46" value="oferta" style="ellipse;whiteSpace=wrap;html=1;align=center;" parent="1" vertex="1">
          <mxGeometry x="637.5" y="1090" width="100" height="40" as="geometry" />
        </mxCell>
        <mxCell id="1wsnQfbL-bB5Dj-azG1w-47" style="rounded=0;orthogonalLoop=1;jettySize=auto;html=1;exitX=0.5;exitY=1;exitDx=0;exitDy=0;entryX=0.5;entryY=0;entryDx=0;entryDy=0;endArrow=none;endFill=0;" parent="1" source="1wsnQfbL-bB5Dj-azG1w-43" target="1wsnQfbL-bB5Dj-azG1w-46" edge="1">
          <mxGeometry relative="1" as="geometry">
            <mxPoint x="635" y="1045" as="sourcePoint" />
            <mxPoint x="590" y="1100" as="targetPoint" />
          </mxGeometry>
        </mxCell>
        <mxCell id="1wsnQfbL-bB5Dj-azG1w-48" style="rounded=0;orthogonalLoop=1;jettySize=auto;html=1;exitX=0;exitY=0.5;exitDx=0;exitDy=0;entryX=1;entryY=0.5;entryDx=0;entryDy=0;endArrow=none;endFill=0;" parent="1" source="1wsnQfbL-bB5Dj-azG1w-49" target="1wsnQfbL-bB5Dj-azG1w-43" edge="1">
          <mxGeometry relative="1" as="geometry" />
        </mxCell>
        <mxCell id="1wsnQfbL-bB5Dj-azG1w-49" value="usuario" style="ellipse;whiteSpace=wrap;html=1;align=center;" parent="1" vertex="1">
          <mxGeometry x="715" y="945" width="100" height="40" as="geometry" />
        </mxCell>
        <mxCell id="1wsnQfbL-bB5Dj-azG1w-50" style="rounded=0;orthogonalLoop=1;jettySize=auto;html=1;exitX=0;exitY=0.5;exitDx=0;exitDy=0;entryX=1;entryY=0.5;entryDx=0;entryDy=0;endArrow=none;endFill=0;" parent="1" source="1wsnQfbL-bB5Dj-azG1w-51" target="1wsnQfbL-bB5Dj-azG1w-43" edge="1">
          <mxGeometry relative="1" as="geometry">
            <mxPoint x="696.25" y="1070" as="targetPoint" />
            <mxPoint x="733.75" y="1070" as="sourcePoint" />
          </mxGeometry>
        </mxCell>
        <mxCell id="1wsnQfbL-bB5Dj-azG1w-51" value="fecha" style="ellipse;whiteSpace=wrap;html=1;align=center;" parent="1" vertex="1">
          <mxGeometry x="715" y="1040" width="100" height="40" as="geometry" />
        </mxCell>
        <mxCell id="JkKdHwhiY4ZIvZWWVgxL-1" value="sal" style="ellipse;whiteSpace=wrap;html=1;align=center;" vertex="1" parent="1">
          <mxGeometry x="340" y="180" width="100" height="40" as="geometry" />
        </mxCell>
        <mxCell id="JkKdHwhiY4ZIvZWWVgxL-3" style="rounded=0;orthogonalLoop=1;jettySize=auto;html=1;exitX=0.5;exitY=0;exitDx=0;exitDy=0;entryX=0.5;entryY=1;entryDx=0;entryDy=0;endArrow=none;endFill=0;" edge="1" parent="1" target="JkKdHwhiY4ZIvZWWVgxL-4" source="n7jX9IWa5AHNB72dme2B-1">
          <mxGeometry relative="1" as="geometry">
            <mxPoint x="170" y="130" as="sourcePoint" />
          </mxGeometry>
        </mxCell>
        <mxCell id="JkKdHwhiY4ZIvZWWVgxL-4" value="suspension" style="ellipse;whiteSpace=wrap;html=1;align=center;" vertex="1" parent="1">
          <mxGeometry x="240" y="90" width="100" height="40" as="geometry" />
        </mxCell>
        <mxCell id="JkKdHwhiY4ZIvZWWVgxL-5" style="rounded=0;orthogonalLoop=1;jettySize=auto;html=1;exitX=0;exitY=0.5;exitDx=0;exitDy=0;entryX=1;entryY=0.5;entryDx=0;entryDy=0;endArrow=none;endFill=0;" edge="1" parent="1" source="JkKdHwhiY4ZIvZWWVgxL-8" target="JkKdHwhiY4ZIvZWWVgxL-9">
          <mxGeometry relative="1" as="geometry" />
        </mxCell>
        <mxCell id="JkKdHwhiY4ZIvZWWVgxL-6" style="rounded=0;orthogonalLoop=1;jettySize=auto;html=1;exitX=0.5;exitY=1;exitDx=0;exitDy=0;entryX=0;entryY=0.5;entryDx=0;entryDy=0;endArrow=none;endFill=0;" edge="1" parent="1" source="JkKdHwhiY4ZIvZWWVgxL-8" target="JkKdHwhiY4ZIvZWWVgxL-10">
          <mxGeometry relative="1" as="geometry" />
        </mxCell>
        <mxCell id="JkKdHwhiY4ZIvZWWVgxL-7" style="rounded=0;orthogonalLoop=1;jettySize=auto;html=1;exitX=1;exitY=0.5;exitDx=0;exitDy=0;entryX=0;entryY=0.5;entryDx=0;entryDy=0;endArrow=none;endFill=0;" edge="1" parent="1" source="JkKdHwhiY4ZIvZWWVgxL-8" target="JkKdHwhiY4ZIvZWWVgxL-11">
          <mxGeometry relative="1" as="geometry">
            <mxPoint x="1317.5" y="530" as="targetPoint" />
          </mxGeometry>
        </mxCell>
        <mxCell id="JkKdHwhiY4ZIvZWWVgxL-8" value="suspension" style="whiteSpace=wrap;html=1;align=center;" vertex="1" parent="1">
          <mxGeometry x="1176.5" y="510" width="100" height="40" as="geometry" />
        </mxCell>
        <mxCell id="JkKdHwhiY4ZIvZWWVgxL-9" value="username" style="ellipse;whiteSpace=wrap;html=1;align=center;" vertex="1" parent="1">
          <mxGeometry x="1027.5" y="510" width="100" height="40" as="geometry" />
        </mxCell>
        <mxCell id="JkKdHwhiY4ZIvZWWVgxL-10" value="codigo" style="ellipse;whiteSpace=wrap;html=1;align=center;fontStyle=4;" vertex="1" parent="1">
          <mxGeometry x="1276.5" y="590" width="100" height="40" as="geometry" />
        </mxCell>
        <mxCell id="JkKdHwhiY4ZIvZWWVgxL-11" value="estado" style="ellipse;whiteSpace=wrap;html=1;align=center;" vertex="1" parent="1">
          <mxGeometry x="1322.5" y="510" width="100" height="40" as="geometry" />
        </mxCell>
        <mxCell id="JkKdHwhiY4ZIvZWWVgxL-13" style="rounded=0;orthogonalLoop=1;jettySize=auto;html=1;exitX=0;exitY=0.5;exitDx=0;exitDy=0;entryX=1;entryY=0.5;entryDx=0;entryDy=0;endArrow=none;endFill=0;" edge="1" parent="1" source="JkKdHwhiY4ZIvZWWVgxL-16" target="JkKdHwhiY4ZIvZWWVgxL-17">
          <mxGeometry relative="1" as="geometry" />
        </mxCell>
        <mxCell id="JkKdHwhiY4ZIvZWWVgxL-14" style="rounded=0;orthogonalLoop=1;jettySize=auto;html=1;exitX=0.5;exitY=1;exitDx=0;exitDy=0;entryX=0;entryY=0.5;entryDx=0;entryDy=0;endArrow=none;endFill=0;" edge="1" parent="1" source="JkKdHwhiY4ZIvZWWVgxL-16" target="JkKdHwhiY4ZIvZWWVgxL-18">
          <mxGeometry relative="1" as="geometry" />
        </mxCell>
        <mxCell id="JkKdHwhiY4ZIvZWWVgxL-15" style="rounded=0;orthogonalLoop=1;jettySize=auto;html=1;exitX=1;exitY=0.5;exitDx=0;exitDy=0;entryX=0;entryY=0.5;entryDx=0;entryDy=0;endArrow=none;endFill=0;" edge="1" parent="1" source="JkKdHwhiY4ZIvZWWVgxL-16" target="JkKdHwhiY4ZIvZWWVgxL-19">
          <mxGeometry relative="1" as="geometry" />
        </mxCell>
        <mxCell id="JkKdHwhiY4ZIvZWWVgxL-16" value="notificaciones" style="whiteSpace=wrap;html=1;align=center;" vertex="1" parent="1">
          <mxGeometry x="1024" y="40" width="100" height="40" as="geometry" />
        </mxCell>
        <mxCell id="JkKdHwhiY4ZIvZWWVgxL-17" value="codigoUsuario" style="ellipse;whiteSpace=wrap;html=1;align=center;" vertex="1" parent="1">
          <mxGeometry x="875" y="40" width="100" height="40" as="geometry" />
        </mxCell>
        <mxCell id="JkKdHwhiY4ZIvZWWVgxL-18" value="codigo" style="ellipse;whiteSpace=wrap;html=1;align=center;fontStyle=4;" vertex="1" parent="1">
          <mxGeometry x="1124" y="120" width="100" height="40" as="geometry" />
        </mxCell>
        <mxCell id="JkKdHwhiY4ZIvZWWVgxL-19" value="codigoEmrpesa" style="ellipse;whiteSpace=wrap;html=1;align=center;" vertex="1" parent="1">
          <mxGeometry x="1165" y="40" width="100" height="40" as="geometry" />
        </mxCell>
        <mxCell id="JkKdHwhiY4ZIvZWWVgxL-21" value="mensaje" style="ellipse;whiteSpace=wrap;html=1;align=center;fontStyle=1" vertex="1" parent="1">
          <mxGeometry x="890" y="110" width="100" height="40" as="geometry" />
        </mxCell>
        <mxCell id="JkKdHwhiY4ZIvZWWVgxL-22" style="rounded=0;orthogonalLoop=1;jettySize=auto;html=1;exitX=0.5;exitY=1;exitDx=0;exitDy=0;entryX=0.99;entryY=0.3;entryDx=0;entryDy=0;endArrow=none;endFill=0;entryPerimeter=0;" edge="1" parent="1" source="JkKdHwhiY4ZIvZWWVgxL-16" target="JkKdHwhiY4ZIvZWWVgxL-21">
          <mxGeometry relative="1" as="geometry">
            <mxPoint x="1034" y="70" as="sourcePoint" />
            <mxPoint x="985" y="70" as="targetPoint" />
          </mxGeometry>
        </mxCell>
        <mxCell id="JkKdHwhiY4ZIvZWWVgxL-23" style="rounded=0;orthogonalLoop=1;jettySize=auto;html=1;exitX=0.5;exitY=0;exitDx=0;exitDy=0;entryX=0.5;entryY=1;entryDx=0;entryDy=0;edgeStyle=orthogonalEdgeStyle;endArrow=none;endFill=0;" edge="1" parent="1" source="jXXUjzo4BKxj_JuMPKdT-1" target="JkKdHwhiY4ZIvZWWVgxL-16">
          <mxGeometry relative="1" as="geometry">
            <mxPoint x="655" y="230" as="sourcePoint" />
            <mxPoint x="659" y="80" as="targetPoint" />
            <Array as="points">
              <mxPoint x="645" y="170" />
              <mxPoint x="1074" y="170" />
            </Array>
          </mxGeometry>
        </mxCell>
        <mxCell id="JkKdHwhiY4ZIvZWWVgxL-24" value="cobro" style="ellipse;whiteSpace=wrap;html=1;align=center;" vertex="1" parent="1">
          <mxGeometry x="577.5" y="1620" width="100" height="40" as="geometry" />
        </mxCell>
        <mxCell id="JkKdHwhiY4ZIvZWWVgxL-25" style="rounded=0;orthogonalLoop=1;jettySize=auto;html=1;exitX=0;exitY=0.5;exitDx=0;exitDy=0;entryX=1;entryY=0.75;entryDx=0;entryDy=0;endArrow=none;endFill=0;" edge="1" parent="1" source="JkKdHwhiY4ZIvZWWVgxL-24" target="1wsnQfbL-bB5Dj-azG1w-10">
          <mxGeometry relative="1" as="geometry">
            <mxPoint x="530" y="1620" as="sourcePoint" />
            <mxPoint x="440" y="1564" as="targetPoint" />
          </mxGeometry>
        </mxCell>
        <mxCell id="JkKdHwhiY4ZIvZWWVgxL-27" value="empresa" style="ellipse;whiteSpace=wrap;html=1;align=center;" vertex="1" parent="1">
          <mxGeometry x="590" y="1478" width="100" height="40" as="geometry" />
        </mxCell>
        <mxCell id="JkKdHwhiY4ZIvZWWVgxL-28" style="rounded=0;orthogonalLoop=1;jettySize=auto;html=1;exitX=0;exitY=0.5;exitDx=0;exitDy=0;entryX=1;entryY=0.5;entryDx=0;entryDy=0;endArrow=none;endFill=0;" edge="1" parent="1" source="JkKdHwhiY4ZIvZWWVgxL-27" target="1wsnQfbL-bB5Dj-azG1w-10">
          <mxGeometry relative="1" as="geometry">
            <mxPoint x="640" y="1572" as="sourcePoint" />
            <mxPoint x="540" y="1542" as="targetPoint" />
          </mxGeometry>
        </mxCell>
        <mxCell id="JkKdHwhiY4ZIvZWWVgxL-29" value="cantidadTarjeta" style="ellipse;whiteSpace=wrap;html=1;align=center;" vertex="1" parent="1">
          <mxGeometry x="340" y="1694" width="100" height="40" as="geometry" />
        </mxCell>
        <mxCell id="JkKdHwhiY4ZIvZWWVgxL-30" style="rounded=0;orthogonalLoop=1;jettySize=auto;html=1;endArrow=none;endFill=0;exitX=0.5;exitY=0;exitDx=0;exitDy=0;entryX=0.5;entryY=1;entryDx=0;entryDy=0;" edge="1" parent="1" source="JkKdHwhiY4ZIvZWWVgxL-29" target="1wsnQfbL-bB5Dj-azG1w-10">
          <mxGeometry relative="1" as="geometry">
            <mxPoint x="340" y="1634" as="sourcePoint" />
            <mxPoint x="445" y="1644" as="targetPoint" />
          </mxGeometry>
        </mxCell>
        <mxCell id="JkKdHwhiY4ZIvZWWVgxL-31" style="rounded=0;orthogonalLoop=1;jettySize=auto;html=1;exitX=0.25;exitY=0;exitDx=0;exitDy=0;entryX=1;entryY=0.5;entryDx=0;entryDy=0;endArrow=none;endFill=0;" edge="1" parent="1" source="JkKdHwhiY4ZIvZWWVgxL-34" target="JkKdHwhiY4ZIvZWWVgxL-35">
          <mxGeometry relative="1" as="geometry" />
        </mxCell>
        <mxCell id="JkKdHwhiY4ZIvZWWVgxL-32" style="rounded=0;orthogonalLoop=1;jettySize=auto;html=1;exitX=0.5;exitY=0;exitDx=0;exitDy=0;entryX=0.5;entryY=1;entryDx=0;entryDy=0;endArrow=none;endFill=0;" edge="1" parent="1" source="JkKdHwhiY4ZIvZWWVgxL-34" target="JkKdHwhiY4ZIvZWWVgxL-36">
          <mxGeometry relative="1" as="geometry" />
        </mxCell>
        <mxCell id="JkKdHwhiY4ZIvZWWVgxL-33" style="rounded=0;orthogonalLoop=1;jettySize=auto;html=1;exitX=0.5;exitY=1;exitDx=0;exitDy=0;entryX=0.5;entryY=0;entryDx=0;entryDy=0;endArrow=none;endFill=0;" edge="1" parent="1" source="JkKdHwhiY4ZIvZWWVgxL-34" target="JkKdHwhiY4ZIvZWWVgxL-37">
          <mxGeometry relative="1" as="geometry" />
        </mxCell>
        <mxCell id="JkKdHwhiY4ZIvZWWVgxL-34" value="postulacionRetirada" style="whiteSpace=wrap;html=1;align=center;" vertex="1" parent="1">
          <mxGeometry x="-315" y="560" width="115" height="40" as="geometry" />
        </mxCell>
        <mxCell id="JkKdHwhiY4ZIvZWWVgxL-35" value="codigo" style="ellipse;whiteSpace=wrap;html=1;align=center;fontStyle=4;" vertex="1" parent="1">
          <mxGeometry x="-465" y="515" width="100" height="40" as="geometry" />
        </mxCell>
        <mxCell id="JkKdHwhiY4ZIvZWWVgxL-36" value="usuario" style="ellipse;whiteSpace=wrap;html=1;align=center;" vertex="1" parent="1">
          <mxGeometry x="-355" y="465" width="100" height="40" as="geometry" />
        </mxCell>
        <mxCell id="JkKdHwhiY4ZIvZWWVgxL-37" value="fecha" style="ellipse;whiteSpace=wrap;html=1;align=center;" vertex="1" parent="1">
          <mxGeometry x="-425" y="660" width="100" height="40" as="geometry" />
        </mxCell>
        <mxCell id="JkKdHwhiY4ZIvZWWVgxL-38" style="rounded=0;orthogonalLoop=1;jettySize=auto;html=1;exitX=1;exitY=0.5;exitDx=0;exitDy=0;entryX=0;entryY=0.5;entryDx=0;entryDy=0;endArrow=none;endFill=0;" edge="1" parent="1" source="JkKdHwhiY4ZIvZWWVgxL-39" target="JkKdHwhiY4ZIvZWWVgxL-34">
          <mxGeometry relative="1" as="geometry" />
        </mxCell>
        <mxCell id="JkKdHwhiY4ZIvZWWVgxL-39" value="oferta" style="ellipse;whiteSpace=wrap;html=1;align=center;" vertex="1" parent="1">
          <mxGeometry x="-480" y="600" width="100" height="40" as="geometry" />
        </mxCell>
        <mxCell id="JkKdHwhiY4ZIvZWWVgxL-40" value="retira" style="shape=rhombus;perimeter=rhombusPerimeter;whiteSpace=wrap;html=1;align=center;" vertex="1" parent="1">
          <mxGeometry x="-150" y="550" width="120" height="60" as="geometry" />
        </mxCell>
        <mxCell id="JkKdHwhiY4ZIvZWWVgxL-41" style="edgeStyle=orthogonalEdgeStyle;rounded=0;orthogonalLoop=1;jettySize=auto;html=1;exitX=0;exitY=0.5;exitDx=0;exitDy=0;entryX=1;entryY=0.5;entryDx=0;entryDy=0;endArrow=none;endFill=0;" edge="1" parent="1" source="jXXUjzo4BKxj_JuMPKdT-82" target="JkKdHwhiY4ZIvZWWVgxL-40">
          <mxGeometry relative="1" as="geometry">
            <mxPoint x="150" y="590" as="sourcePoint" />
            <mxPoint x="120" y="590" as="targetPoint" />
          </mxGeometry>
        </mxCell>
        <mxCell id="JkKdHwhiY4ZIvZWWVgxL-42" style="edgeStyle=orthogonalEdgeStyle;rounded=0;orthogonalLoop=1;jettySize=auto;html=1;exitX=0;exitY=0.5;exitDx=0;exitDy=0;entryX=1;entryY=0.5;entryDx=0;entryDy=0;endArrow=none;endFill=0;fontStyle=1" edge="1" parent="1" source="JkKdHwhiY4ZIvZWWVgxL-40" target="JkKdHwhiY4ZIvZWWVgxL-34">
          <mxGeometry relative="1" as="geometry">
            <mxPoint x="20" y="590" as="sourcePoint" />
            <mxPoint x="-20" y="590" as="targetPoint" />
          </mxGeometry>
        </mxCell>
      </root>
    </mxGraphModel>
  </diagram>
</mxfile>
